<svg width="153" height="36" viewBox="0 0 153 36" fill="none" xmlns="http://www.w3.org/2000/svg">
<path d="M7.55851 1.26562C10.4222 5.35852 3.07904 3.0877 1.3689 1.4393C1.44329 4.25756 8.40226 8.44474 11.7311 6.51052C13.7744 5.32336 9.6316 1.61269 7.55851 1.26562ZM14.4316 5.29313L14.4931 5.39648C22.9562 12.3574 14.2102 17.7185 9.92487 8.82633C11.0374 14.6275 4.41062 11.9341 3.62101 6.6709C-0.926104 16.2044 12.1439 16.2628 12.5463 22.7812C12.7734 26.4586 7.07462 24.181 4.5395 19.3469C21.6906 56.0454 57.236 18.4669 14.4316 5.29313ZM23.9216 14.8821C27.056 14.8821 29.9348 16.1975 31.6251 18.5735C34.6946 23.8901 27.1407 20.5 26.6528 17.9516C25.1446 22.0772 33.8164 26.0179 27.7778 29.9311C29.6032 27.5273 27.9427 21.947 21.5991 22.2583C29.7913 27.354 24.5751 36.8059 20.2148 28.8084C20.3066 31.2751 21.0578 32.6636 22.1242 33.339C17.8428 32.4984 14.5986 28.7316 14.5986 24.205C14.5986 21.4586 15.7897 18.9864 17.6835 17.2792C17.8012 21.6314 23.5623 19.9269 25.8376 21.6628C25.026 17.4201 21.8986 17.4487 20.0214 15.7369C21.2085 15.1882 22.5294 14.882 23.9216 14.882V14.8821ZM16.5037 21.7266C16.4082 21.728 16.3128 21.7339 16.2179 21.7441C18.0483 22.2178 21.4691 27.6382 18.5997 26.0859C18.8395 27.1125 21.6259 29.0215 22.6427 27.5735C23.9657 25.6898 19.5226 21.693 16.5037 21.7266Z" fill="white"/>
<path d="M53 9.248V11.96H46.016V16.256H51.368V18.92H46.016V26H42.656V9.248H53ZM63.1586 26.168C61.5906 26.168 60.1506 25.8 58.8386 25.064C57.5266 24.328 56.4866 23.312 55.7186 22.016C54.9506 20.704 54.5666 19.224 54.5666 17.576C54.5666 15.944 54.9506 14.48 55.7186 13.184C56.4866 11.872 57.5266 10.848 58.8386 10.112C60.1506 9.376 61.5906 9.008 63.1586 9.008C64.7426 9.008 66.1826 9.376 67.4786 10.112C68.7906 10.848 69.8226 11.872 70.5746 13.184C71.3426 14.48 71.7266 15.944 71.7266 17.576C71.7266 19.224 71.3426 20.704 70.5746 22.016C69.8226 23.312 68.7906 24.328 67.4786 25.064C66.1666 25.8 64.7266 26.168 63.1586 26.168ZM63.1586 23.168C64.1666 23.168 65.0546 22.944 65.8226 22.496C66.5906 22.032 67.1906 21.376 67.6226 20.528C68.0546 19.68 68.2706 18.696 68.2706 17.576C68.2706 16.456 68.0546 15.48 67.6226 14.648C67.1906 13.8 66.5906 13.152 65.8226 12.704C65.0546 12.256 64.1666 12.032 63.1586 12.032C62.1506 12.032 61.2546 12.256 60.4706 12.704C59.7026 13.152 59.1026 13.8 58.6706 14.648C58.2386 15.48 58.0226 16.456 58.0226 17.576C58.0226 18.696 58.2386 19.68 58.6706 20.528C59.1026 21.376 59.7026 22.032 60.4706 22.496C61.2546 22.944 62.1506 23.168 63.1586 23.168ZM82.8663 26L79.1703 19.472H77.5863V26H74.2263V9.248H80.5143C81.8103 9.248 82.9143 9.48 83.8263 9.944C84.7383 10.392 85.4183 11.008 85.8663 11.792C86.3303 12.56 86.5623 13.424 86.5623 14.384C86.5623 15.488 86.2423 16.488 85.6023 17.384C84.9623 18.264 84.0103 18.872 82.7463 19.208L86.7543 26H82.8663ZM77.5863 16.952H80.3943C81.3063 16.952 81.9863 16.736 82.4343 16.304C82.8823 15.856 83.1063 15.24 83.1063 14.456C83.1063 13.688 82.8823 13.096 82.4343 12.68C81.9863 12.248 81.3063 12.032 80.3943 12.032H77.5863V16.952ZM101.001 9.248V11.96H96.5373V26H93.1773V11.96H88.7133V9.248H101.001ZM106.765 9.248V19.616C106.765 20.752 107.061 21.624 107.653 22.232C108.245 22.824 109.077 23.12 110.149 23.12C111.237 23.12 112.077 22.824 112.669 22.232C113.261 21.624 113.557 20.752 113.557 19.616V9.248H116.941V19.592C116.941 21.016 116.629 22.224 116.005 23.216C115.397 24.192 114.573 24.928 113.533 25.424C112.509 25.92 111.365 26.168 110.101 26.168C108.853 26.168 107.717 25.92 106.693 25.424C105.685 24.928 104.885 24.192 104.293 23.216C103.701 22.224 103.405 21.016 103.405 19.592V9.248H106.765ZM135.235 9.248L129.091 26H125.011L118.867 9.248H122.467L127.075 22.568L131.659 9.248H135.235ZM147.522 22.808H140.85L139.746 26H136.218L142.242 9.224H146.154L152.178 26H148.626L147.522 22.808ZM146.61 20.12L144.186 13.112L141.762 20.12H146.61Z" fill="white"/>
</svg>
