<svg width="0" height="0" class="hidden">
    <symbol fill="none" xmlns="http://www.w3.org/2000/svg" viewBox="0 0 15 24" id="caret-right">
        <path
            d="M0.96052 2.05416L2.90569 0.110828L13.5005 10.702C13.6713 10.8717 13.8068 11.0735 13.8993 11.2958C13.9918 11.5181 14.0394 11.7565 14.0394 11.9972C14.0394 12.238 13.9918 12.4764 13.8993 12.6987C13.8068 12.921 13.6713 13.1228 13.5005 13.2925L2.90569 23.8892L0.962353 21.9458L10.9064 12L0.96052 2.05416Z"
            fill="currentColor"></path>
    </symbol>

    <symbol fill="none" xmlns="http://www.w3.org/2000/svg" viewBox="0 0 15 24" id="caret-left">
        <path
            d="M14.0395 21.9458L12.0943 23.8892L1.49948 13.298C1.3287 13.1283 1.19316 12.9265 1.10067 12.7042C1.00819 12.4819 0.960572 12.2435 0.960572 12.0028C0.960572 11.762 1.00819 11.5236 1.10067 11.3013C1.19316 11.079 1.3287 10.8772 1.49948 10.7075L12.0943 0.110839L14.0376 2.05417L4.09365 12L14.0395 21.9458Z"
            fill="currentColor"></path>
    </symbol>

    <symbol fill="none" xmlns="http://www.w3.org/2000/svg" viewBox="0 0 12 15" id="play-fill">
        <path d="M1 1.5L11 7.5L1 13.5V1.5Z" fill="currentColor" stroke="white" stroke-width="2"
            stroke-linecap="round" stroke-linejoin="round"></path>
    </symbol>

    <symbol fill="none" xmlns="http://www.w3.org/2000/svg" viewBox="0 0 8 8" id="arrow-up">
        <path
            d="M4.02725 6.9165L3.97281 1.08342M3.97281 1.08342L1.08349 4.02718M3.97281 1.08342L6.91657 3.97274"
            stroke="currentColor" stroke-width="2" stroke-linecap="round" stroke-linejoin="round"></path>
    </symbol>

    <symbol fill="none" xmlns="http://www.w3.org/2000/svg" viewBox="0 0 43 43" id="clock">
        <path
            d="M21.5 0.520813C27.0641 0.520813 32.4002 2.73111 36.3345 6.66547C40.2689 10.5998 42.4792 15.936 42.4792 21.5C42.4792 27.064 40.2689 32.4001 36.3345 36.3345C32.4002 40.2688 27.0641 42.4791 21.5 42.4791C15.936 42.4791 10.5999 40.2688 6.66553 36.3345C2.73117 32.4001 0.520874 27.064 0.520874 21.5C0.520874 15.936 2.73117 10.5998 6.66553 6.66547C10.5999 2.73111 15.936 0.520813 21.5 0.520813ZM21.5 2.72915C16.5217 2.72915 11.7473 4.70678 8.22706 8.227C4.70684 11.7472 2.72921 16.5216 2.72921 21.5C2.72921 26.4783 4.70684 31.2528 8.22706 34.773C11.7473 38.2932 16.5217 40.2708 21.5 40.2708C23.9651 40.2708 26.4059 39.7853 28.6833 38.842C30.9607 37.8986 33.03 36.516 34.773 34.773C36.5161 33.0299 37.8987 30.9606 38.842 28.6833C39.7854 26.4059 40.2709 23.965 40.2709 21.5C40.2709 16.5216 38.2932 11.7472 34.773 8.227C31.2528 4.70678 26.4784 2.72915 21.5 2.72915ZM20.3959 9.35415H22.6042V21.3233L32.9834 27.3079L31.8792 29.2291L20.3959 22.6041V9.35415Z"
            fill="white"></path>
    </symbol>

    <symbol fill="none" xmlns="http://www.w3.org/2000/svg" viewBox="0 0 30 30" id="avatar">
        <rect x="0.5" y="0.5" width="29" height="29" rx="14.5" fill="#EBFBFE"></rect>
        <path fill-rule="evenodd" clip-rule="evenodd"
            d="M10.125 10C10.125 7.30761 12.3076 5.125 15 5.125C17.6924 5.125 19.875 7.30761 19.875 10C19.875 12.6924 17.6924 14.875 15 14.875C12.3076 14.875 10.125 12.6924 10.125 10Z"
            fill="#0B87AC"></path>
        <path fill-rule="evenodd" clip-rule="evenodd"
            d="M6.06384 25.2808C6.14763 20.4169 10.1163 16.5 15 16.5C19.8838 16.5 23.8525 20.4171 23.9361 25.2811C23.9417 25.6037 23.7559 25.899 23.4626 26.0336C20.8854 27.2161 18.0187 27.875 15.0003 27.875C11.9817 27.875 9.11471 27.216 6.53734 26.0332C6.24411 25.8987 6.05829 25.6034 6.06384 25.2808Z"
            fill="#0B87AC"></path>
    </symbol>

    <symbol fill="none" xmlns="http://www.w3.org/2000/svg" viewBox="0 0 17 17" id="arrow-left">
        <path
            d="M4.32484 9.50005L9.22484 14.4C9.42484 14.6 9.52084 14.8334 9.51284 15.1C9.50484 15.3667 9.40051 15.6 9.19984 15.8C8.99984 15.9834 8.76651 16.0794 8.49984 16.088C8.23318 16.0967 7.99984 16.0007 7.79984 15.8L1.19984 9.20005C1.09984 9.10005 1.02884 8.99172 0.986843 8.87505C0.944843 8.75838 0.924509 8.63338 0.925843 8.50005C0.927176 8.36672 0.948176 8.24172 0.988843 8.12505C1.02951 8.00838 1.10018 7.90005 1.20084 7.80005L7.80084 1.20005C7.98418 1.01672 8.21351 0.925049 8.48884 0.925049C8.76418 0.925049 9.00151 1.01672 9.20084 1.20005C9.40084 1.40005 9.50084 1.63772 9.50084 1.91305C9.50084 2.18838 9.40084 2.42572 9.20084 2.62505L4.32484 7.50005H15.4998C15.7832 7.50005 16.0208 7.59605 16.2128 7.78805C16.4048 7.98005 16.5005 8.21738 16.4998 8.50005C16.4992 8.78272 16.4032 9.02038 16.2118 9.21305C16.0205 9.40572 15.7832 9.50138 15.4998 9.50005H4.32484Z"
            fill="currentColor"></path>
    </symbol>

    <symbol fill="none" xmlns="http://www.w3.org/2000/svg" viewBox="0 0 24 24" id="bag">
        <path fill-rule="evenodd" clip-rule="evenodd"
            d="M16.5139 21.4999H8.16604C5.09968 21.4999 2.74727 20.3924 3.41547 15.9347L4.1935 9.89351C4.6054 7.66925 6.02416 6.81799 7.26901 6.81799H17.4475C18.7107 6.81799 20.047 7.73332 20.523 9.89351L21.3011 15.9347C21.8686 19.8889 19.5802 21.4999 16.5139 21.4999Z"
            stroke="currentColor" stroke-width="1.5" stroke-linecap="round" stroke-linejoin="round"></path>
        <path
            d="M16.6512 6.59836C16.6512 4.21229 14.7169 2.27799 12.3309 2.27799V2.27799C11.1819 2.27312 10.0782 2.72615 9.26406 3.53691C8.44987 4.34766 7.99218 5.44935 7.99219 6.59836H7.99219"
            stroke="currentColor" stroke-width="1.5" stroke-linecap="round" stroke-linejoin="round"></path>
        <path d="M15.2965 11.1018H15.2507" stroke="currentColor" stroke-width="1.5"
            stroke-linecap="round" stroke-linejoin="round"></path>
        <path d="M9.4659 11.1018H9.42013" stroke="currentColor" stroke-width="1.5"
            stroke-linecap="round" stroke-linejoin="round"></path>
    </symbol>

    <symbol fill="none" xmlns="http://www.w3.org/2000/svg" viewBox="0 0 21 18" id="chart">
        <path d="M6.3335 7V13M10.3335 9V13M14.3335 5V13" stroke="currentColor" stroke-width="2"
            stroke-linecap="round" stroke-linejoin="round"></path>
        <path
            d="M17.3335 1H3.3335C2.22893 1 1.3335 1.89543 1.3335 3V15C1.3335 16.1046 2.22893 17 3.3335 17H17.3335C18.4381 17 19.3335 16.1046 19.3335 15V3C19.3335 1.89543 18.4381 1 17.3335 1Z"
            stroke="currentColor" stroke-width="2"></path>
    </symbol>

    <symbol fill="none" xmlns="http://www.w3.org/2000/svg" viewBox="0 0 24 24" id="home">
        <path
            d="M20.83 8.01002L14.28 2.77002C13 1.75002 11 1.74002 9.72996 2.76002L3.17996 8.01002C2.23996 8.76002 1.66996 10.26 1.86996 11.44L3.12996 18.98C3.41996 20.67 4.98996 22 6.69996 22H17.3C18.99 22 20.59 20.64 20.88 18.97L22.14 11.43C22.32 10.26 21.75 8.76002 20.83 8.01002ZM12.75 18C12.75 18.41 12.41 18.75 12 18.75C11.59 18.75 11.25 18.41 11.25 18V15C11.25 14.59 11.59 14.25 12 14.25C12.41 14.25 12.75 14.59 12.75 15V18Z"
            fill="currentColor"></path>
    </symbol>

    <symbol fill="none" xmlns="http://www.w3.org/2000/svg" viewBox="0 0 25 24" id="medal">
        <path
            d="M13 18.7851C14.5278 18.7851 15.8266 18.2538 16.8964 17.1911C17.9663 16.1285 18.5008 14.8374 18.5 13.3179C18.4992 11.7985 17.9647 10.5078 16.8964 9.446C15.8282 8.38416 14.5294 7.85243 13 7.85081C11.4706 7.84919 10.1722 8.38092 9.10478 9.446C8.03737 10.5111 7.50244 11.8017 7.5 13.3179C7.49756 14.8342 8.03248 16.1252 9.10478 17.1911C10.1771 18.257 11.4755 18.7883 13 18.7851ZM9.47267 7.65035C9.86378 7.39602 10.2806 7.19151 10.723 7.03681C11.1663 6.88211 11.6221 6.76872 12.0907 6.69663L9.30889 1.21492H6.25333L9.47267 7.65035ZM16.5273 7.65035L19.776 1.21492H16.6911L14.023 6.47187L14.1574 6.73916C14.5836 6.82015 14.9959 6.93354 15.3943 7.07933C15.792 7.22512 16.17 7.41546 16.5286 7.65035M7.16756 17.4912C7.18141 17.3551 7.21319 17.2053 7.26289 17.0417C7.31178 16.8764 7.38348 16.7023 7.478 16.5193C7.10156 15.9142 6.82981 15.261 6.66278 14.5596C6.49574 13.8582 6.45256 13.1361 6.53322 12.3934C6.53322 11.7859 6.63915 11.2092 6.851 10.6633C7.06204 10.1183 7.35537 9.62783 7.731 9.19208C7.44011 9.24149 7.18385 9.34516 6.96222 9.5031C6.74222 9.66185 6.58496 9.85097 6.49044 10.0705C5.58193 10.29 4.87344 10.7982 4.365 11.5952C3.85737 12.3914 3.70256 13.2742 3.90056 14.2437C3.90056 15.1468 4.21793 15.9138 4.85267 16.5448C5.48659 17.1749 6.25822 17.4912 7.16756 17.4912ZM18.8349 17.49C19.9414 17.4252 20.8752 16.9943 21.6362 16.1973C22.3981 15.4011 22.779 14.4413 22.779 13.3179C22.779 12.1945 22.3981 11.2348 21.6362 10.4386C20.8744 9.64241 19.9406 9.21111 18.8349 9.1447C18.7412 9.1447 18.6475 9.14875 18.5538 9.15685C18.4593 9.16495 18.3647 9.17669 18.2702 9.19208C18.7265 9.7639 19.0826 10.4005 19.3384 11.1019C19.5951 11.8033 19.7234 12.542 19.7234 13.3179C19.7234 14.0939 19.5955 14.8325 19.3397 15.534C19.083 16.2354 18.7269 16.872 18.2714 17.4438C18.3651 17.46 18.4589 17.4718 18.5526 17.479C18.6471 17.4871 18.7412 17.49 18.8349 17.49ZM13 20C12.217 20 11.4771 19.8797 10.7804 19.6392C10.0838 19.3986 9.45107 19.0524 8.88233 18.6004C8.66722 18.6725 8.4407 18.7211 8.20278 18.7462C7.96485 18.7713 7.72041 18.7843 7.46944 18.7851C5.96041 18.7851 4.67178 18.2542 3.60356 17.1923C2.53533 16.1305 2.00081 14.8491 2 13.3483C2 11.8669 2.52026 10.5998 3.56078 9.54683C4.6013 8.49391 5.86181 7.95124 7.34233 7.91884C7.51507 7.91884 7.67967 7.93059 7.83611 7.95408C7.99256 7.97675 8.149 8.00389 8.30544 8.03548L4.25622 0.00121483H10.0862L13 5.79516L15.915 0H21.7438L17.7471 7.95165C17.8889 7.92006 18.0343 7.89657 18.1834 7.88118C18.3317 7.86498 18.4845 7.85688 18.6418 7.85688C20.1378 7.89495 21.4048 8.44045 22.4429 9.49338C23.481 10.5463 24 11.8212 24 13.3179C24 14.8382 23.4659 16.1297 22.3977 17.1923C21.3294 18.255 20.0302 18.7859 18.5 18.7851C18.2539 18.7851 18.0148 18.7721 17.7826 18.7462C17.5503 18.7203 17.3263 18.6717 17.1103 18.6004C16.5424 19.037 15.9109 19.3792 15.2159 19.627C14.5209 19.8749 13.7822 19.9992 13 20ZM11.0921 16.0977L11.8059 13.7541L9.898 12.4019H12.2557L13 9.93075L13.7456 12.4019H16.1032L14.1941 13.7553L14.9091 16.0989L13 14.6544L11.0921 16.0977Z"
            fill="currentColor"></path>
    </symbol>

    <symbol fill="none" xmlns="http://www.w3.org/2000/svg" viewBox="0 0 52 52" id="profile">
        <rect width="52" height="52" rx="12" fill="#D1E5FF"></rect>
        <path
            d="M41.9419 44.8774C40.5349 41.0963 31.9295 39.2905 30.4228 38.1947C28.4882 36.7878 29.1036 32.1275 29.1036 32.1275L25.9382 32.2108L22.7725 32.1275C22.7725 32.1275 23.3882 36.7878 21.4537 38.1947C19.9469 39.2905 11.3415 41.0963 9.93456 44.8774C8.52765 48.6585 8 52 8 52H25.7624H26.114H43.8762C43.8762 52 43.3488 48.6585 41.9419 44.8774Z"
            fill="#A1444B"></path>
        <path
            d="M22.1863 37.3264C23.668 37.1749 25.1577 36.8744 26.4479 36.1528C27.3885 35.6268 28.2353 35.0057 29.0214 34.3065C28.9747 33.109 29.1037 32.1275 29.1037 32.1275L25.9383 32.2108L22.7726 32.1275C22.7726 32.1275 23.2108 35.4443 22.1863 37.3264Z"
            fill="#7A3134"></path>
        <path
            d="M42.1912 44.8251C40.8208 41.142 32.6713 39.3196 30.7618 38.2051C29.2539 39.082 27.4147 39.599 25.4276 39.599C23.7013 39.599 22.0861 39.2089 20.7026 38.5317C18.0265 39.6707 11.1931 41.4808 9.94876 44.8251C8.53144 48.6339 8 52 8 52H25.893H26.2472H44.14C44.14 52 43.6086 48.6339 42.1912 44.8251Z"
            fill="#177DFF"></path>
        <path
            d="M20.6226 24.8622C20.1115 23.276 18.9008 23.6432 18.7874 23.6815C18.6686 23.6952 17.4172 23.8812 17.6335 25.5335C17.8509 27.1959 18.8153 28.0967 19.7197 27.832C20.6505 27.6846 21.137 26.4577 20.6226 24.8622Z"
            fill="#7A3134"></path>
        <path
            d="M31.0949 24.8622C31.6062 23.276 32.8167 23.6432 32.93 23.6815C33.0488 23.6952 34.3003 23.8812 34.0842 25.5335C33.8666 27.1959 32.9021 28.0967 31.9978 27.832C31.0672 27.6846 30.5805 26.4577 31.0949 24.8622Z"
            fill="#7A3134"></path>
        <path
            d="M32.1505 22.3669C31.5169 15.4135 26.2307 15.803 25.7322 15.8553C25.2336 15.803 19.9474 15.4135 19.3137 22.3669C18.6765 29.3619 21.7921 33.9302 25.7322 33.679C29.6723 33.9302 32.788 29.3619 32.1505 22.3669Z"
            fill="#A1444B"></path>
        <path
            d="M26.083 28.252C26.1015 28.2046 26.1263 28.1642 26.1493 28.1218C26.1713 28.0785 26.198 28.04 26.224 28.0009C26.2773 27.924 26.3357 27.8526 26.397 27.7839C26.4602 27.7174 26.5226 27.6503 26.5929 27.5909C26.6603 27.5289 26.7332 27.4726 26.8087 27.4191L26.777 27.5104C26.7204 27.0502 26.6681 26.5893 26.6182 26.1279C26.5747 25.6655 26.5226 25.2046 26.4876 24.7411C26.5839 25.1959 26.6629 25.653 26.7505 26.1087C26.8321 26.5656 26.9109 27.0228 26.9857 27.4806L26.9928 27.5232L26.954 27.5722C26.8962 27.6448 26.8361 27.7146 26.7706 27.7785C26.7077 27.8455 26.6372 27.9041 26.5674 27.9635C26.4957 28.0213 26.4209 28.0757 26.3411 28.1247C26.3009 28.1486 26.2609 28.1732 26.2164 28.1928C26.1729 28.2136 26.1313 28.2361 26.083 28.252Z"
            fill="#7A3134"></path>
        <path
            d="M22.4431 24.8459C22.4431 25.3695 22.6376 25.7943 22.8773 25.7943C23.1172 25.7943 23.3115 25.3695 23.3115 24.8459C23.3115 24.3223 23.1172 23.8975 22.8773 23.8975C22.6376 23.8975 22.4431 24.3223 22.4431 24.8459Z"
            fill="#29202E"></path>
        <path
            d="M28.4092 24.8459C28.4092 25.3695 28.6037 25.7943 28.8434 25.7943C29.0833 25.7943 29.2776 25.3695 29.2776 24.8459C29.2776 24.3223 29.0833 23.8975 28.8434 23.8975C28.6037 23.8975 28.4092 24.3223 28.4092 24.8459Z"
            fill="#29202E"></path>
        <path
            d="M21.3774 23.2942C21.3774 23.2942 21.4529 23.067 21.6876 22.8032C21.7494 22.7414 21.8112 22.666 21.8928 22.6044C21.9704 22.5377 22.0589 22.4741 22.1585 22.418C22.2531 22.3548 22.3689 22.3155 22.481 22.2685C22.601 22.2394 22.7207 22.1965 22.8501 22.1937C22.914 22.1904 22.9779 22.1856 23.0415 22.1849C23.1052 22.1908 23.1686 22.2005 23.2311 22.2091C23.3581 22.2173 23.4712 22.2756 23.5822 22.3136C23.6932 22.3546 23.7814 22.4286 23.8706 22.4831C23.9622 22.5361 24.0204 22.6201 24.085 22.6809C24.1472 22.7443 24.2024 22.803 24.2372 22.8673C24.2767 22.9269 24.3065 22.9821 24.3313 23.0263C24.3798 23.1155 24.4026 23.1681 24.4026 23.1681C24.4026 23.1681 24.3472 23.143 24.2594 23.0964C24.2161 23.0725 24.1631 23.045 24.1075 23.01C24.0535 22.9724 23.9816 22.9475 23.9116 22.9125C23.838 22.8844 23.7694 22.834 23.6847 22.8139C23.6014 22.7921 23.5221 22.7493 23.4339 22.7353C23.3451 22.7244 23.2599 22.6901 23.1679 22.6941C23.1227 22.6915 23.0775 22.6901 23.0321 22.6847L22.8946 22.6958C22.8021 22.6922 22.7115 22.7275 22.619 22.737C22.5298 22.7684 22.4361 22.7826 22.3502 22.8205C22.2621 22.8512 22.1767 22.8851 22.0965 22.9229C22.0135 22.9556 21.9394 22.9982 21.8653 23.0299C21.7936 23.068 21.7279 23.1025 21.6697 23.1333C21.6103 23.1659 21.5584 23.1943 21.5156 23.2177C21.4278 23.2665 21.3774 23.2942 21.3774 23.2942Z"
            fill="#29202E"></path>
        <path
            d="M27.3855 23.2942C27.3855 23.2942 27.4607 23.067 27.6955 22.8032C27.7575 22.7414 27.8192 22.666 27.9008 22.6044C27.9784 22.5377 28.0669 22.4741 28.1666 22.418C28.2612 22.3548 28.3767 22.3155 28.4888 22.2685C28.609 22.2394 28.7285 22.1965 28.8579 22.1937C28.9221 22.1904 28.986 22.1856 29.0494 22.1849C29.1133 22.1908 29.1764 22.2005 29.2389 22.2091C29.3662 22.2173 29.4791 22.2756 29.5903 22.3136C29.701 22.3546 29.7893 22.4286 29.8785 22.4831C29.97 22.5361 30.0282 22.6201 30.0928 22.6809C30.1553 22.7443 30.2104 22.803 30.2452 22.8673C30.2845 22.9269 30.3143 22.9821 30.3392 23.0263C30.3879 23.1155 30.4104 23.1681 30.4104 23.1681C30.4104 23.1681 30.3552 23.143 30.2675 23.0964C30.2242 23.0725 30.1712 23.045 30.1156 23.01C30.0614 22.9724 29.9897 22.9475 29.9196 22.9125C29.8458 22.8844 29.7772 22.834 29.6925 22.8139C29.6094 22.7921 29.5302 22.7493 29.4417 22.7353C29.3532 22.7244 29.2678 22.6901 29.176 22.6941C29.1305 22.6915 29.0853 22.6901 29.0401 22.6847L28.9027 22.6958C28.8102 22.6922 28.7193 22.7275 28.6268 22.737C28.5376 22.7684 28.4441 22.7826 28.3582 22.8205C28.27 22.8512 28.1848 22.8851 28.1043 22.9229C28.0215 22.9556 27.9475 22.9982 27.8734 23.0299C27.8015 23.068 27.7359 23.1025 27.6775 23.1333C27.6181 23.1659 27.5663 23.1943 27.5237 23.2177C27.4357 23.2665 27.3855 23.2942 27.3855 23.2942Z"
            fill="#29202E"></path>
        <path
            d="M23.0854 29.2656L28.9447 29.2095C28.9447 29.2095 26.3981 31.5726 23.0854 29.2656Z"
            fill="white"></path>
        <path
            d="M18.9446 18.3814C18.9446 18.3814 18.5896 27.0769 19.5952 31.1585C20.3522 34.2305 22.5529 35.0627 22.5529 35.0627C22.5529 35.0627 27.7584 37.0739 30.657 33.8205C31.4917 32.8835 32.7865 27.9642 32.195 19.1504L30.0654 18.2631C30.0654 18.2631 30.4204 22.5813 31.4851 23.1137C31.4851 23.1137 31.1721 30.8311 29.8288 31.7501C28.7049 32.5191 30.5978 28.2009 28.4091 28.26C26.2204 28.3192 26.1613 28.3783 26.1613 28.3783C26.1613 28.3783 22.2572 27.7276 22.3163 29.2656C22.3755 30.8036 22.7895 31.8092 22.2572 31.8092C21.7248 31.8092 19.7727 30.567 20.1276 22.463C20.1276 22.463 21.2516 22.0489 21.2516 19.2095C21.2516 15.4753 18.9446 18.3814 18.9446 18.3814Z"
            fill="#29202E"></path>
        <path
            d="M21.0149 17.9081C21.0149 17.9081 22.7166 20.2151 24.7416 20.2151C25.8655 20.2151 24.7416 18.2631 24.7416 18.2631C24.7416 18.2631 26.3387 20.7475 27.995 20.6883C29.6513 20.6292 28.2316 18.2631 28.2316 18.2631C28.2316 18.2631 29.4739 20.8067 31.0118 20.6883C32.5498 20.57 31.2485 18.0856 31.2485 18.0856C31.2485 18.0856 31.9583 20.7475 33.4371 20.3926C34.916 20.0377 33.0822 17.7307 33.0822 17.7307C33.0822 17.7307 34.3244 18.9137 34.8568 18.8546C35.3892 18.7954 35.3892 17.1983 33.5554 16.4293C33.5554 16.4293 35.3892 16.3701 35.4484 15.4828C35.5153 14.4775 34.3244 14.1223 31.6034 14.4181C31.6034 14.4181 33.8512 13.4716 33.378 12.6435C32.9048 11.8153 30.8935 12.9984 30.8935 12.9984C30.8935 12.9984 32.9048 11.8745 31.7217 10.9872C30.7506 10.2589 25.688 10.2773 22.612 13.9448C22.612 13.9448 29.0006 10.5731 28.2316 10.0999C27.6886 9.76552 20.0462 11.4732 18.8854 14.7138C17.4657 18.6771 18.5304 20.925 18.9895 23.6236L21.0149 17.9081Z"
            fill="#29202E"></path>
    </symbol>

    <symbol fill="none" xmlns="http://www.w3.org/2000/svg" viewBox="0 0 22 19" id="live">
        <mask id="path-1-inside-1_176_2564" fill="white">
            <path fill-rule="evenodd" clip-rule="evenodd"
                d="M14.41 3.21C14.56 3.39 14.78 3.49 15 3.49H15.01C15.1513 3.49232 15.2903 3.45429 15.4108 3.38039C15.5312 3.30648 15.6281 3.19976 15.69 3.07274C15.752 2.94572 15.7764 2.80367 15.7604 2.66326C15.7445 2.52285 15.6888 2.3899 15.6 2.28C14.44 0.83 12.77 0 11.01 0C9.25 0 7.57 0.83 6.42 2.28C6.30672 2.43596 6.25802 2.62964 6.28406 2.82063C6.3101 3.01162 6.40886 3.18519 6.55976 3.30514C6.71066 3.42508 6.90204 3.48214 7.09398 3.46442C7.28593 3.44669 7.46362 3.35555 7.59 3.21C8.45 2.12 9.7 1.49 11 1.49C12.3 1.49 13.54 2.12 14.41 3.21ZM6 18.49H16C18 18.49 19 18.49 19.88 17.99C20.47 17.65 20.93 17.18 21.25 16.62C21.75 15.75 21.75 14.74 21.75 12.75C21.75 10.76 21.75 9.75 21.25 8.88C20.92 8.31 20.46 7.85 19.87 7.5C19 7 18 7 16 7H6C4 7 3 7 2.12 7.5C1.53 7.84 1.07 8.31 0.75 8.87C0.25 9.74 0.25 10.75 0.25 12.74C0.25 14.73 0.25 15.74 0.75 16.61C1.08 17.18 1.54 17.64 2.13 17.99C3 18.49 4 18.49 6 18.49ZM2.87 8.79C3.4 8.49 4.27 8.49 6 8.49H16C17.74 8.49 18.61 8.49 19.12 8.79C19.48 9 19.76 9.28 19.95 9.62C20.25 10.15 20.25 11.02 20.25 12.75C20.25 14.48 20.25 15.35 19.95 15.88C19.76 16.22 19.48 16.49 19.13 16.7C18.6 17 17.73 17 16 17H6C4.26 17 3.39 17 2.88 16.7C2.52 16.49 2.24 16.21 2.05 15.87C1.75 15.34 1.75 14.47 1.75 12.74C1.75 11.01 1.75 10.14 2.05 9.61C2.24 9.27 2.52 9 2.87 8.79ZM12.999 5.49C12.779 5.49 12.559 5.39 12.409 5.21C11.679 4.3 10.309 4.3 9.579 5.21C9.319 5.53 8.849 5.58 8.529 5.33C8.37446 5.20625 8.27512 5.02642 8.25264 4.82973C8.23017 4.63303 8.28637 4.43542 8.409 4.28C9.059 3.47 9.999 3 10.999 3C11.999 3 12.929 3.47 13.589 4.28C13.849 4.6 13.799 5.08 13.469 5.33C13.329 5.44 13.169 5.49 12.999 5.49ZM16 15.49H18C18.41 15.49 18.75 15.15 18.75 14.74C18.75 14.33 18.41 13.99 18 13.99H16.75V13.49H17.5C17.91 13.49 18.25 13.15 18.25 12.74C18.25 12.33 17.91 11.99 17.5 11.99H16.75V11.49H18C18.41 11.49 18.75 11.15 18.75 10.74C18.75 10.33 18.41 9.99 18 9.99H16C15.59 9.99 15.25 10.33 15.25 10.74V14.74C15.25 15.15 15.59 15.49 16 15.49ZM11.3 15C11.41 15.3 11.69 15.49 12 15.49H12.02C12.33 15.49 12.61 15.29 12.72 15L14.22 11C14.2884 10.8129 14.2806 10.6064 14.1984 10.425C14.1161 10.2436 13.9658 10.1018 13.78 10.03C13.6875 9.99477 13.5889 9.97821 13.4899 9.98128C13.3909 9.98436 13.2935 10.007 13.2033 10.0479C13.1131 10.0888 13.032 10.1472 12.9645 10.2196C12.8969 10.2921 12.8445 10.3772 12.81 10.47L12.01 12.6L11.21 10.47C11.1755 10.3772 11.1231 10.2921 11.0555 10.2196C10.988 10.1472 10.9069 10.0888 10.8167 10.0479C10.7265 10.007 10.6291 9.98436 10.5301 9.98128C10.4311 9.97821 10.3325 9.99477 10.24 10.03C10.1472 10.0645 10.0621 10.1169 9.98962 10.1845C9.91717 10.252 9.85881 10.3331 9.81791 10.4233C9.777 10.5135 9.75436 10.6109 9.75128 10.7099C9.74821 10.8089 9.76477 10.9075 9.8 11L11.3 15ZM7.25 14.74C7.25 15.15 7.59 15.49 8 15.49C8.41 15.49 8.75 15.15 8.75 14.74V10.74C8.75 10.33 8.41 9.99 8 9.99C7.59 9.99 7.25 10.33 7.25 10.74V14.74ZM3.25 14.74C3.25 15.15 3.59 15.49 4 15.49H5.5C5.91 15.49 6.25 15.15 6.25 14.74C6.25 14.33 5.91 13.99 5.5 13.99H4.75V10.74C4.75 10.33 4.41 9.99 4 9.99C3.59 9.99 3.25 10.33 3.25 10.74V14.74Z"></path>
        </mask>
        <path fill-rule="evenodd" clip-rule="evenodd"
            d="M14.41 3.21C14.56 3.39 14.78 3.49 15 3.49H15.01C15.1513 3.49232 15.2903 3.45429 15.4108 3.38039C15.5312 3.30648 15.6281 3.19976 15.69 3.07274C15.752 2.94572 15.7764 2.80367 15.7604 2.66326C15.7445 2.52285 15.6888 2.3899 15.6 2.28C14.44 0.83 12.77 0 11.01 0C9.25 0 7.57 0.83 6.42 2.28C6.30672 2.43596 6.25802 2.62964 6.28406 2.82063C6.3101 3.01162 6.40886 3.18519 6.55976 3.30514C6.71066 3.42508 6.90204 3.48214 7.09398 3.46442C7.28593 3.44669 7.46362 3.35555 7.59 3.21C8.45 2.12 9.7 1.49 11 1.49C12.3 1.49 13.54 2.12 14.41 3.21ZM6 18.49H16C18 18.49 19 18.49 19.88 17.99C20.47 17.65 20.93 17.18 21.25 16.62C21.75 15.75 21.75 14.74 21.75 12.75C21.75 10.76 21.75 9.75 21.25 8.88C20.92 8.31 20.46 7.85 19.87 7.5C19 7 18 7 16 7H6C4 7 3 7 2.12 7.5C1.53 7.84 1.07 8.31 0.75 8.87C0.25 9.74 0.25 10.75 0.25 12.74C0.25 14.73 0.25 15.74 0.75 16.61C1.08 17.18 1.54 17.64 2.13 17.99C3 18.49 4 18.49 6 18.49ZM2.87 8.79C3.4 8.49 4.27 8.49 6 8.49H16C17.74 8.49 18.61 8.49 19.12 8.79C19.48 9 19.76 9.28 19.95 9.62C20.25 10.15 20.25 11.02 20.25 12.75C20.25 14.48 20.25 15.35 19.95 15.88C19.76 16.22 19.48 16.49 19.13 16.7C18.6 17 17.73 17 16 17H6C4.26 17 3.39 17 2.88 16.7C2.52 16.49 2.24 16.21 2.05 15.87C1.75 15.34 1.75 14.47 1.75 12.74C1.75 11.01 1.75 10.14 2.05 9.61C2.24 9.27 2.52 9 2.87 8.79ZM12.999 5.49C12.779 5.49 12.559 5.39 12.409 5.21C11.679 4.3 10.309 4.3 9.579 5.21C9.319 5.53 8.849 5.58 8.529 5.33C8.37446 5.20625 8.27512 5.02642 8.25264 4.82973C8.23017 4.63303 8.28637 4.43542 8.409 4.28C9.059 3.47 9.999 3 10.999 3C11.999 3 12.929 3.47 13.589 4.28C13.849 4.6 13.799 5.08 13.469 5.33C13.329 5.44 13.169 5.49 12.999 5.49ZM16 15.49H18C18.41 15.49 18.75 15.15 18.75 14.74C18.75 14.33 18.41 13.99 18 13.99H16.75V13.49H17.5C17.91 13.49 18.25 13.15 18.25 12.74C18.25 12.33 17.91 11.99 17.5 11.99H16.75V11.49H18C18.41 11.49 18.75 11.15 18.75 10.74C18.75 10.33 18.41 9.99 18 9.99H16C15.59 9.99 15.25 10.33 15.25 10.74V14.74C15.25 15.15 15.59 15.49 16 15.49ZM11.3 15C11.41 15.3 11.69 15.49 12 15.49H12.02C12.33 15.49 12.61 15.29 12.72 15L14.22 11C14.2884 10.8129 14.2806 10.6064 14.1984 10.425C14.1161 10.2436 13.9658 10.1018 13.78 10.03C13.6875 9.99477 13.5889 9.97821 13.4899 9.98128C13.3909 9.98436 13.2935 10.007 13.2033 10.0479C13.1131 10.0888 13.032 10.1472 12.9645 10.2196C12.8969 10.2921 12.8445 10.3772 12.81 10.47L12.01 12.6L11.21 10.47C11.1755 10.3772 11.1231 10.2921 11.0555 10.2196C10.988 10.1472 10.9069 10.0888 10.8167 10.0479C10.7265 10.007 10.6291 9.98436 10.5301 9.98128C10.4311 9.97821 10.3325 9.99477 10.24 10.03C10.1472 10.0645 10.0621 10.1169 9.98962 10.1845C9.91717 10.252 9.85881 10.3331 9.81791 10.4233C9.777 10.5135 9.75436 10.6109 9.75128 10.7099C9.74821 10.8089 9.76477 10.9075 9.8 11L11.3 15ZM7.25 14.74C7.25 15.15 7.59 15.49 8 15.49C8.41 15.49 8.75 15.15 8.75 14.74V10.74C8.75 10.33 8.41 9.99 8 9.99C7.59 9.99 7.25 10.33 7.25 10.74V14.74ZM3.25 14.74C3.25 15.15 3.59 15.49 4 15.49H5.5C5.91 15.49 6.25 15.15 6.25 14.74C6.25 14.33 5.91 13.99 5.5 13.99H4.75V10.74C4.75 10.33 4.41 9.99 4 9.99C3.59 9.99 3.25 10.33 3.25 10.74V14.74Z"
            stroke="currentColor" mask="url(#path-1-inside-1_176_2564)"></path>
    </symbol>
</svg>