<svg width="0" height="0" class="hidden">
    <symbol fill="none" xmlns="http://www.w3.org/2000/svg" viewBox="0 0 15 24" id="caret-right">
        <path
            d="M0.96052 2.05416L2.90569 0.110828L13.5005 10.702C13.6713 10.8717 13.8068 11.0735 13.8993 11.2958C13.9918 11.5181 14.0394 11.7565 14.0394 11.9972C14.0394 12.238 13.9918 12.4764 13.8993 12.6987C13.8068 12.921 13.6713 13.1228 13.5005 13.2925L2.90569 23.8892L0.962353 21.9458L10.9064 12L0.96052 2.05416Z"
            fill="currentColor"></path>
    </symbol>

    <symbol fill="none" xmlns="http://www.w3.org/2000/svg" viewBox="0 0 15 24" id="caret-left">
        <path
            d="M14.0395 21.9458L12.0943 23.8892L1.49948 13.298C1.3287 13.1283 1.19316 12.9265 1.10067 12.7042C1.00819 12.4819 0.960572 12.2435 0.960572 12.0028C0.960572 11.762 1.00819 11.5236 1.10067 11.3013C1.19316 11.079 1.3287 10.8772 1.49948 10.7075L12.0943 0.110839L14.0376 2.05417L4.09365 12L14.0395 21.9458Z"
            fill="currentColor"></path>
    </symbol>

    <symbol fill="none" xmlns="http://www.w3.org/2000/svg" viewBox="0 0 12 15" id="play-fill">
        <path d="M1 1.5L11 7.5L1 13.5V1.5Z" fill="currentColor" stroke="white" stroke-width="2"
            stroke-linecap="round" stroke-linejoin="round"></path>
    </symbol>

    <symbol fill="none" xmlns="http://www.w3.org/2000/svg" viewBox="0 0 8 8" id="arrow-up">
        <path
            d="M4.02725 6.9165L3.97281 1.08342M3.97281 1.08342L1.08349 4.02718M3.97281 1.08342L6.91657 3.97274"
            stroke="currentColor" stroke-width="2" stroke-linecap="round" stroke-linejoin="round"></path>
    </symbol>

    <symbol fill="none" xmlns="http://www.w3.org/2000/svg" viewBox="0 0 43 43" id="clock">
        <path
            d="M21.5 0.520813C27.0641 0.520813 32.4002 2.73111 36.3345 6.66547C40.2689 10.5998 42.4792 15.936 42.4792 21.5C42.4792 27.064 40.2689 32.4001 36.3345 36.3345C32.4002 40.2688 27.0641 42.4791 21.5 42.4791C15.936 42.4791 10.5999 40.2688 6.66553 36.3345C2.73117 32.4001 0.520874 27.064 0.520874 21.5C0.520874 15.936 2.73117 10.5998 6.66553 6.66547C10.5999 2.73111 15.936 0.520813 21.5 0.520813ZM21.5 2.72915C16.5217 2.72915 11.7473 4.70678 8.22706 8.227C4.70684 11.7472 2.72921 16.5216 2.72921 21.5C2.72921 26.4783 4.70684 31.2528 8.22706 34.773C11.7473 38.2932 16.5217 40.2708 21.5 40.2708C23.9651 40.2708 26.4059 39.7853 28.6833 38.842C30.9607 37.8986 33.03 36.516 34.773 34.773C36.5161 33.0299 37.8987 30.9606 38.842 28.6833C39.7854 26.4059 40.2709 23.965 40.2709 21.5C40.2709 16.5216 38.2932 11.7472 34.773 8.227C31.2528 4.70678 26.4784 2.72915 21.5 2.72915ZM20.3959 9.35415H22.6042V21.3233L32.9834 27.3079L31.8792 29.2291L20.3959 22.6041V9.35415Z"
            fill="white"></path>
    </symbol>

    <symbol fill="none" xmlns="http://www.w3.org/2000/svg" viewBox="0 0 30 30" id="avatar">
        <rect x="0.5" y="0.5" width="29" height="29" rx="14.5" fill="#EBFBFE"></rect>
        <path fill-rule="evenodd" clip-rule="evenodd"
            d="M10.125 10C10.125 7.30761 12.3076 5.125 15 5.125C17.6924 5.125 19.875 7.30761 19.875 10C19.875 12.6924 17.6924 14.875 15 14.875C12.3076 14.875 10.125 12.6924 10.125 10Z"
            fill="#0B87AC"></path>
        <path fill-rule="evenodd" clip-rule="evenodd"
            d="M6.06384 25.2808C6.14763 20.4169 10.1163 16.5 15 16.5C19.8838 16.5 23.8525 20.4171 23.9361 25.2811C23.9417 25.6037 23.7559 25.899 23.4626 26.0336C20.8854 27.2161 18.0187 27.875 15.0003 27.875C11.9817 27.875 9.11471 27.216 6.53734 26.0332C6.24411 25.8987 6.05829 25.6034 6.06384 25.2808Z"
            fill="#0B87AC"></path>
    </symbol>

    <symbol fill="none" xmlns="http://www.w3.org/2000/svg" viewBox="0 0 17 17" id="arrow-left">
        <path
            d="M4.32484 9.50005L9.22484 14.4C9.42484 14.6 9.52084 14.8334 9.51284 15.1C9.50484 15.3667 9.40051 15.6 9.19984 15.8C8.99984 15.9834 8.76651 16.0794 8.49984 16.088C8.23318 16.0967 7.99984 16.0007 7.79984 15.8L1.19984 9.20005C1.09984 9.10005 1.02884 8.99172 0.986843 8.87505C0.944843 8.75838 0.924509 8.63338 0.925843 8.50005C0.927176 8.36672 0.948176 8.24172 0.988843 8.12505C1.02951 8.00838 1.10018 7.90005 1.20084 7.80005L7.80084 1.20005C7.98418 1.01672 8.21351 0.925049 8.48884 0.925049C8.76418 0.925049 9.00151 1.01672 9.20084 1.20005C9.40084 1.40005 9.50084 1.63772 9.50084 1.91305C9.50084 2.18838 9.40084 2.42572 9.20084 2.62505L4.32484 7.50005H15.4998C15.7832 7.50005 16.0208 7.59605 16.2128 7.78805C16.4048 7.98005 16.5005 8.21738 16.4998 8.50005C16.4992 8.78272 16.4032 9.02038 16.2118 9.21305C16.0205 9.40572 15.7832 9.50138 15.4998 9.50005H4.32484Z"
            fill="currentColor"></path>
    </symbol>

    <symbol fill="none" xmlns="http://www.w3.org/2000/svg" viewBox="0 0 24 24" id="bag">
        <path fill-rule="evenodd" clip-rule="evenodd"
            d="M16.5139 21.4999H8.16604C5.09968 21.4999 2.74727 20.3924 3.41547 15.9347L4.1935 9.89351C4.6054 7.66925 6.02416 6.81799 7.26901 6.81799H17.4475C18.7107 6.81799 20.047 7.73332 20.523 9.89351L21.3011 15.9347C21.8686 19.8889 19.5802 21.4999 16.5139 21.4999Z"
            stroke="currentColor" stroke-width="1.5" stroke-linecap="round" stroke-linejoin="round"></path>
        <path
            d="M16.6512 6.59836C16.6512 4.21229 14.7169 2.27799 12.3309 2.27799V2.27799C11.1819 2.27312 10.0782 2.72615 9.26406 3.53691C8.44987 4.34766 7.99218 5.44935 7.99219 6.59836H7.99219"
            stroke="currentColor" stroke-width="1.5" stroke-linecap="round" stroke-linejoin="round"></path>
        <path d="M15.2965 11.1018H15.2507" stroke="currentColor" stroke-width="1.5"
            stroke-linecap="round" stroke-linejoin="round"></path>
        <path d="M9.4659 11.1018H9.42013" stroke="currentColor" stroke-width="1.5"
            stroke-linecap="round" stroke-linejoin="round"></path>
    </symbol>

    <symbol fill="none" xmlns="http://www.w3.org/2000/svg" viewBox="0 0 21 18" id="chart">
        <path d="M6.3335 7V13M10.3335 9V13M14.3335 5V13" stroke="currentColor" stroke-width="2"
            stroke-linecap="round" stroke-linejoin="round"></path>
        <path
            d="M17.3335 1H3.3335C2.22893 1 1.3335 1.89543 1.3335 3V15C1.3335 16.1046 2.22893 17 3.3335 17H17.3335C18.4381 17 19.3335 16.1046 19.3335 15V3C19.3335 1.89543 18.4381 1 17.3335 1Z"
            stroke="currentColor" stroke-width="2"></path>
    </symbol>

    <symbol fill="none" xmlns="http://www.w3.org/2000/svg" viewBox="0 0 24 24" id="home">
        <path
            d="M20.83 8.01002L14.28 2.77002C13 1.75002 11 1.74002 9.72996 2.76002L3.17996 8.01002C2.23996 8.76002 1.66996 10.26 1.86996 11.44L3.12996 18.98C3.41996 20.67 4.98996 22 6.69996 22H17.3C18.99 22 20.59 20.64 20.88 18.97L22.14 11.43C22.32 10.26 21.75 8.76002 20.83 8.01002ZM12.75 18C12.75 18.41 12.41 18.75 12 18.75C11.59 18.75 11.25 18.41 11.25 18V15C11.25 14.59 11.59 14.25 12 14.25C12.41 14.25 12.75 14.59 12.75 15V18Z"
            fill="currentColor"></path>
    </symbol>

    <symbol fill="none" xmlns="http://www.w3.org/2000/svg" viewBox="0 0 25 24" id="medal">
        <path
            d="M13 18.7851C14.5278 18.7851 15.8266 18.2538 16.8964 17.1911C17.9663 16.1285 18.5008 14.8374 18.5 13.3179C18.4992 11.7985 17.9647 10.5078 16.8964 9.446C15.8282 8.38416 14.5294 7.85243 13 7.85081C11.4706 7.84919 10.1722 8.38092 9.10478 9.446C8.03737 10.5111 7.50244 11.8017 7.5 13.3179C7.49756 14.8342 8.03248 16.1252 9.10478 17.1911C10.1771 18.257 11.4755 18.7883 13 18.7851ZM9.47267 7.65035C9.86378 7.39602 10.2806 7.19151 10.723 7.03681C11.1663 6.88211 11.6221 6.76872 12.0907 6.69663L9.30889 1.21492H6.25333L9.47267 7.65035ZM16.5273 7.65035L19.776 1.21492H16.6911L14.023 6.47187L14.1574 6.73916C14.5836 6.82015 14.9959 6.93354 15.3943 7.07933C15.792 7.22512 16.17 7.41546 16.5286 7.65035M7.16756 17.4912C7.18141 17.3551 7.21319 17.2053 7.26289 17.0417C7.31178 16.8764 7.38348 16.7023 7.478 16.5193C7.10156 15.9142 6.82981 15.261 6.66278 14.5596C6.49574 13.8582 6.45256 13.1361 6.53322 12.3934C6.53322 11.7859 6.63915 11.2092 6.851 10.6633C7.06204 10.1183 7.35537 9.62783 7.731 9.19208C7.44011 9.24149 7.18385 9.34516 6.96222 9.5031C6.74222 9.66185 6.58496 9.85097 6.49044 10.0705C5.58193 10.29 4.87344 10.7982 4.365 11.5952C3.85737 12.3914 3.70256 13.2742 3.90056 14.2437C3.90056 15.1468 4.21793 15.9138 4.85267 16.5448C5.48659 17.1749 6.25822 17.4912 7.16756 17.4912ZM18.8349 17.49C19.9414 17.4252 20.8752 16.9943 21.6362 16.1973C22.3981 15.4011 22.779 14.4413 22.779 13.3179C22.779 12.1945 22.3981 11.2348 21.6362 10.4386C20.8744 9.64241 19.9406 9.21111 18.8349 9.1447C18.7412 9.1447 18.6475 9.14875 18.5538 9.15685C18.4593 9.16495 18.3647 9.17669 18.2702 9.19208C18.7265 9.7639 19.0826 10.4005 19.3384 11.1019C19.5951 11.8033 19.7234 12.542 19.7234 13.3179C19.7234 14.0939 19.5955 14.8325 19.3397 15.534C19.083 16.2354 18.7269 16.872 18.2714 17.4438C18.3651 17.46 18.4589 17.4718 18.5526 17.479C18.6471 17.4871 18.7412 17.49 18.8349 17.49ZM13 20C12.217 20 11.4771 19.8797 10.7804 19.6392C10.0838 19.3986 9.45107 19.0524 8.88233 18.6004C8.66722 18.6725 8.4407 18.7211 8.20278 18.7462C7.96485 18.7713 7.72041 18.7843 7.46944 18.7851C5.96041 18.7851 4.67178 18.2542 3.60356 17.1923C2.53533 16.1305 2.00081 14.8491 2 13.3483C2 11.8669 2.52026 10.5998 3.56078 9.54683C4.6013 8.49391 5.86181 7.95124 7.34233 7.91884C7.51507 7.91884 7.67967 7.93059 7.83611 7.95408C7.99256 7.97675 8.149 8.00389 8.30544 8.03548L4.25622 0.00121483H10.0862L13 5.79516L15.915 0H21.7438L17.7471 7.95165C17.8889 7.92006 18.0343 7.89657 18.1834 7.88118C18.3317 7.86498 18.4845 7.85688 18.6418 7.85688C20.1378 7.89495 21.4048 8.44045 22.4429 9.49338C23.481 10.5463 24 11.8212 24 13.3179C24 14.8382 23.4659 16.1297 22.3977 17.1923C21.3294 18.255 20.0302 18.7859 18.5 18.7851C18.2539 18.7851 18.0148 18.7721 17.7826 18.7462C17.5503 18.7203 17.3263 18.6717 17.1103 18.6004C16.5424 19.037 15.9109 19.3792 15.2159 19.627C14.5209 19.8749 13.7822 19.9992 13 20ZM11.0921 16.0977L11.8059 13.7541L9.898 12.4019H12.2557L13 9.93075L13.7456 12.4019H16.1032L14.1941 13.7553L14.9091 16.0989L13 14.6544L11.0921 16.0977Z"
            fill="currentColor"></path>
    </symbol>
</svg>