<svg width="0" height="0" class="hidden">
    <symbol fill="none" xmlns="http://www.w3.org/2000/svg" viewBox="0 0 15 24" id="caret-right">
        <path
            d="M0.96052 2.05416L2.90569 0.110828L13.5005 10.702C13.6713 10.8717 13.8068 11.0735 13.8993 11.2958C13.9918 11.5181 14.0394 11.7565 14.0394 11.9972C14.0394 12.238 13.9918 12.4764 13.8993 12.6987C13.8068 12.921 13.6713 13.1228 13.5005 13.2925L2.90569 23.8892L0.962353 21.9458L10.9064 12L0.96052 2.05416Z"
            fill="currentColor"></path>
    </symbol>

    <symbol fill="none" xmlns="http://www.w3.org/2000/svg" viewBox="0 0 15 24" id="caret-left">
        <path
            d="M14.0395 21.9458L12.0943 23.8892L1.49948 13.298C1.3287 13.1283 1.19316 12.9265 1.10067 12.7042C1.00819 12.4819 0.960572 12.2435 0.960572 12.0028C0.960572 11.762 1.00819 11.5236 1.10067 11.3013C1.19316 11.079 1.3287 10.8772 1.49948 10.7075L12.0943 0.110839L14.0376 2.05417L4.09365 12L14.0395 21.9458Z"
            fill="currentColor"></path>
    </symbol>

    <symbol fill="none" xmlns="http://www.w3.org/2000/svg" viewBox="0 0 12 15" id="play-fill">
        <path d="M1 1.5L11 7.5L1 13.5V1.5Z" fill="currentColor" stroke="white" stroke-width="2"
            stroke-linecap="round" stroke-linejoin="round"></path>
    </symbol>

    <symbol fill="none" xmlns="http://www.w3.org/2000/svg" viewBox="0 0 8 8" id="arrow-up">
        <path
            d="M4.02725 6.9165L3.97281 1.08342M3.97281 1.08342L1.08349 4.02718M3.97281 1.08342L6.91657 3.97274"
            stroke="currentColor" stroke-width="2" stroke-linecap="round" stroke-linejoin="round"></path>
    </symbol>

    <symbol fill="none" xmlns="http://www.w3.org/2000/svg" viewBox="0 0 43 43" id="clock">
        <path
            d="M21.5 0.520813C27.0641 0.520813 32.4002 2.73111 36.3345 6.66547C40.2689 10.5998 42.4792 15.936 42.4792 21.5C42.4792 27.064 40.2689 32.4001 36.3345 36.3345C32.4002 40.2688 27.0641 42.4791 21.5 42.4791C15.936 42.4791 10.5999 40.2688 6.66553 36.3345C2.73117 32.4001 0.520874 27.064 0.520874 21.5C0.520874 15.936 2.73117 10.5998 6.66553 6.66547C10.5999 2.73111 15.936 0.520813 21.5 0.520813ZM21.5 2.72915C16.5217 2.72915 11.7473 4.70678 8.22706 8.227C4.70684 11.7472 2.72921 16.5216 2.72921 21.5C2.72921 26.4783 4.70684 31.2528 8.22706 34.773C11.7473 38.2932 16.5217 40.2708 21.5 40.2708C23.9651 40.2708 26.4059 39.7853 28.6833 38.842C30.9607 37.8986 33.03 36.516 34.773 34.773C36.5161 33.0299 37.8987 30.9606 38.842 28.6833C39.7854 26.4059 40.2709 23.965 40.2709 21.5C40.2709 16.5216 38.2932 11.7472 34.773 8.227C31.2528 4.70678 26.4784 2.72915 21.5 2.72915ZM20.3959 9.35415H22.6042V21.3233L32.9834 27.3079L31.8792 29.2291L20.3959 22.6041V9.35415Z"
            fill="white"></path>
    </symbol>

    <symbol fill="none" xmlns="http://www.w3.org/2000/svg" viewBox="0 0 30 30" id="avatar">
        <rect x="0.5" y="0.5" width="29" height="29" rx="14.5" fill="#EBFBFE"></rect>
        <path fill-rule="evenodd" clip-rule="evenodd"
            d="M10.125 10C10.125 7.30761 12.3076 5.125 15 5.125C17.6924 5.125 19.875 7.30761 19.875 10C19.875 12.6924 17.6924 14.875 15 14.875C12.3076 14.875 10.125 12.6924 10.125 10Z"
            fill="#0B87AC"></path>
        <path fill-rule="evenodd" clip-rule="evenodd"
            d="M6.06384 25.2808C6.14763 20.4169 10.1163 16.5 15 16.5C19.8838 16.5 23.8525 20.4171 23.9361 25.2811C23.9417 25.6037 23.7559 25.899 23.4626 26.0336C20.8854 27.2161 18.0187 27.875 15.0003 27.875C11.9817 27.875 9.11471 27.216 6.53734 26.0332C6.24411 25.8987 6.05829 25.6034 6.06384 25.2808Z"
            fill="#0B87AC"></path>
    </symbol>

    <symbol fill="none" xmlns="http://www.w3.org/2000/svg" viewBox="0 0 17 17" id="arrow-left">
        <path
            d="M4.32484 9.50005L9.22484 14.4C9.42484 14.6 9.52084 14.8334 9.51284 15.1C9.50484 15.3667 9.40051 15.6 9.19984 15.8C8.99984 15.9834 8.76651 16.0794 8.49984 16.088C8.23318 16.0967 7.99984 16.0007 7.79984 15.8L1.19984 9.20005C1.09984 9.10005 1.02884 8.99172 0.986843 8.87505C0.944843 8.75838 0.924509 8.63338 0.925843 8.50005C0.927176 8.36672 0.948176 8.24172 0.988843 8.12505C1.02951 8.00838 1.10018 7.90005 1.20084 7.80005L7.80084 1.20005C7.98418 1.01672 8.21351 0.925049 8.48884 0.925049C8.76418 0.925049 9.00151 1.01672 9.20084 1.20005C9.40084 1.40005 9.50084 1.63772 9.50084 1.91305C9.50084 2.18838 9.40084 2.42572 9.20084 2.62505L4.32484 7.50005H15.4998C15.7832 7.50005 16.0208 7.59605 16.2128 7.78805C16.4048 7.98005 16.5005 8.21738 16.4998 8.50005C16.4992 8.78272 16.4032 9.02038 16.2118 9.21305C16.0205 9.40572 15.7832 9.50138 15.4998 9.50005H4.32484Z"
            fill="currentColor"></path>
    </symbol>
</svg>