<svg width="0" height="0" class="hidden">
    <symbol fill="none" xmlns="http://www.w3.org/2000/svg" viewBox="0 0 15 24" id="caret-right">
        <path
            d="M0.96052 2.05416L2.90569 0.110828L13.5005 10.702C13.6713 10.8717 13.8068 11.0735 13.8993 11.2958C13.9918 11.5181 14.0394 11.7565 14.0394 11.9972C14.0394 12.238 13.9918 12.4764 13.8993 12.6987C13.8068 12.921 13.6713 13.1228 13.5005 13.2925L2.90569 23.8892L0.962353 21.9458L10.9064 12L0.96052 2.05416Z"
            fill="currentColor"></path>
    </symbol>

    <symbol fill="none" xmlns="http://www.w3.org/2000/svg" viewBox="0 0 15 24" id="caret-left">
        <path
            d="M14.0395 21.9458L12.0943 23.8892L1.49948 13.298C1.3287 13.1283 1.19316 12.9265 1.10067 12.7042C1.00819 12.4819 0.960572 12.2435 0.960572 12.0028C0.960572 11.762 1.00819 11.5236 1.10067 11.3013C1.19316 11.079 1.3287 10.8772 1.49948 10.7075L12.0943 0.110839L14.0376 2.05417L4.09365 12L14.0395 21.9458Z"
            fill="currentColor"></path>
    </symbol>

    <symbol fill="none" xmlns="http://www.w3.org/2000/svg" viewBox="0 0 12 15" id="play-fill">
        <path d="M1 1.5L11 7.5L1 13.5V1.5Z" fill="currentColor" stroke="white" stroke-width="2"
            stroke-linecap="round" stroke-linejoin="round"></path>
    </symbol>

    <symbol fill="none" xmlns="http://www.w3.org/2000/svg" viewBox="0 0 8 8" id="arrow-up">
        <path
            d="M4.02725 6.9165L3.97281 1.08342M3.97281 1.08342L1.08349 4.02718M3.97281 1.08342L6.91657 3.97274"
            stroke="currentColor" stroke-width="2" stroke-linecap="round" stroke-linejoin="round"></path>
    </symbol>

    <symbol fill="none" xmlns="http://www.w3.org/2000/svg" viewBox="0 0 43 43" id="clock">
        <path
            d="M21.5 0.520813C27.0641 0.520813 32.4002 2.73111 36.3345 6.66547C40.2689 10.5998 42.4792 15.936 42.4792 21.5C42.4792 27.064 40.2689 32.4001 36.3345 36.3345C32.4002 40.2688 27.0641 42.4791 21.5 42.4791C15.936 42.4791 10.5999 40.2688 6.66553 36.3345C2.73117 32.4001 0.520874 27.064 0.520874 21.5C0.520874 15.936 2.73117 10.5998 6.66553 6.66547C10.5999 2.73111 15.936 0.520813 21.5 0.520813ZM21.5 2.72915C16.5217 2.72915 11.7473 4.70678 8.22706 8.227C4.70684 11.7472 2.72921 16.5216 2.72921 21.5C2.72921 26.4783 4.70684 31.2528 8.22706 34.773C11.7473 38.2932 16.5217 40.2708 21.5 40.2708C23.9651 40.2708 26.4059 39.7853 28.6833 38.842C30.9607 37.8986 33.03 36.516 34.773 34.773C36.5161 33.0299 37.8987 30.9606 38.842 28.6833C39.7854 26.4059 40.2709 23.965 40.2709 21.5C40.2709 16.5216 38.2932 11.7472 34.773 8.227C31.2528 4.70678 26.4784 2.72915 21.5 2.72915ZM20.3959 9.35415H22.6042V21.3233L32.9834 27.3079L31.8792 29.2291L20.3959 22.6041V9.35415Z"
            fill="white"></path>
    </symbol>
</svg>